<?xml version="1.0" standalone="no"?>
<!DOCTYPE svg PUBLIC "-//W3C//DTD SVG 20010904//EN"
 "http://www.w3.org/TR/2001/REC-SVG-20010904/DTD/svg10.dtd">
<svg version="1.0" xmlns="http://www.w3.org/2000/svg"
 width="600.000000pt" height="600.000000pt" viewBox="0 0 600.000000 600.000000"
 preserveAspectRatio="xMidYMid meet">
<metadata>
Created by potrace 1.14, written by Peter Selinger 2001-2017
</metadata>
<g transform="translate(0.000000,600.000000) scale(0.100000,-0.100000)"
fill="#000000" stroke="none">
<path d="M2740 5609 c-162 -93 -302 -173 -310 -178 -17 -11 -282 -163 -725
-416 -170 -98 -321 -185 -335 -193 -14 -9 -27 -17 -30 -17 -3 0 -32 -16 -65
-36 -33 -20 -93 -55 -132 -78 l-73 -42 0 -1050 0 -1051 33 20 c95 59 400 232
408 232 5 0 9 5 9 10 0 6 4 10 9 10 6 0 60 29 121 65 61 36 130 76 153 89 23
13 78 44 122 70 l80 46 5 510 5 511 30 17 c17 9 32 20 33 25 2 4 7 7 12 7 4 0
84 43 176 96 93 53 189 108 213 122 25 14 68 38 95 55 28 16 80 46 116 65 36
19 97 55 137 79 39 23 74 43 78 43 3 0 31 16 62 36 31 19 63 36 72 36 9 1 143
-77 298 -173 155 -96 290 -178 300 -184 30 -16 254 -155 311 -192 l54 -34 -34
-18 c-26 -13 -195 -112 -286 -166 -9 -6 -37 -22 -61 -35 -24 -14 -51 -29 -60
-35 -9 -5 -196 -115 -416 -243 -220 -129 -409 -239 -420 -245 -10 -7 -37 -22
-58 -35 -21 -13 -54 -32 -73 -43 -75 -42 -102 -58 -177 -103 -43 -25 -83 -46
-88 -46 -5 0 -9 -4 -9 -8 0 -4 -12 -13 -27 -19 -16 -7 -35 -17 -43 -22 -33
-22 -176 -107 -190 -113 -8 -4 -233 -135 -500 -291 l-485 -284 0 -488 0 -488
325 -190 c286 -167 570 -332 667 -387 17 -11 125 -74 240 -141 114 -67 226
-132 248 -145 22 -12 114 -65 204 -118 90 -53 167 -96 172 -96 5 0 9 -4 9 -9
0 -5 8 -11 18 -15 9 -3 32 -14 51 -25 l34 -20 38 22 c57 33 699 422 771 468
35 21 69 42 77 46 15 7 283 169 359 217 23 14 45 26 48 26 4 0 21 10 38 23 17
13 38 27 46 30 8 4 31 17 52 30 20 12 133 81 252 152 l216 130 0 1003 0 1004
-87 -48 c-49 -26 -101 -55 -118 -64 -16 -9 -66 -36 -110 -60 -44 -23 -127 -69
-185 -100 -58 -32 -132 -73 -165 -91 -33 -18 -96 -52 -140 -76 -44 -25 -92
-50 -107 -56 l-28 -11 0 -196 c0 -107 -1 -327 -3 -489 l-2 -294 -75 -49 c-41
-26 -82 -51 -90 -55 -8 -3 -44 -25 -80 -49 -36 -23 -210 -132 -388 -243 l-322
-201 -98 55 c-53 30 -104 59 -112 65 -16 10 -125 72 -180 103 -19 11 -47 28
-62 38 -14 11 -28 19 -31 19 -2 0 -128 71 -280 158 l-275 159 26 15 c15 9 81
46 147 83 66 37 138 78 160 90 22 12 119 67 215 120 236 132 507 284 551 309
32 18 136 76 279 154 25 13 52 31 61 38 8 8 18 14 22 14 3 0 97 51 209 113
112 63 230 129 263 147 60 33 95 53 170 97 22 12 47 26 55 30 8 4 40 21 70 39
30 17 71 40 90 50 19 11 167 93 328 183 l292 164 0 534 0 533 -22 10 c-13 6
-57 31 -98 56 -71 44 -119 73 -165 98 -11 6 -39 24 -62 39 -24 15 -44 27 -47
27 -2 0 -35 19 -72 42 -78 47 -641 380 -869 513 -82 48 -166 98 -185 110 -19
12 -102 62 -185 110 -82 48 -160 94 -172 101 -12 8 -24 14 -25 13 -2 0 -136
-76 -298 -170z"/>
</g>
</svg>
